<svg width="122" height="122" viewBox="0 0 122 122" fill="none" xmlns="http://www.w3.org/2000/svg">
<g filter="url(#filter0_d_68_33)">
<rect x="7" y="7" width="108" height="108" rx="20" fill="url(#paint0_linear_68_33)"/>
</g>
<g filter="url(#filter1_d_68_33)">
<path fill-rule="evenodd" clip-rule="evenodd" d="M18 41C18 38.7909 19.7909 37 22 37H35V51H18V41ZM41 51V37H58V51H41ZM18 57H35V71H22C19.7909 71 18 69.2091 18 67V57ZM58 71H41V57H58V71ZM87 71H100C102.209 71 104 69.2091 104 67V57H87V71ZM81 71V57H64V71H81ZM87 51H104V41C104 38.7909 102.209 37 100 37H87V51ZM81 37H64V51H81V37Z" fill="#2A2A2A"/>
</g>
<g filter="url(#filter2_d_68_33)">
<path d="M23 77H99V87C99 89.2091 97.2091 91 95 91H27C24.7909 91 23 89.2091 23 87V77Z" fill="#2A2A2A"/>
</g>
<defs>
<filter id="filter0_d_68_33" x="0" y="0" width="122" height="122" filterUnits="userSpaceOnUse" color-interpolation-filters="sRGB">
<feFlood flood-opacity="0" result="BackgroundImageFix"/>
<feColorMatrix in="SourceAlpha" type="matrix" values="0 0 0 0 0 0 0 0 0 0 0 0 0 0 0 0 0 0 127 0" result="hardAlpha"/>
<feOffset/>
<feGaussianBlur stdDeviation="3.5"/>
<feComposite in2="hardAlpha" operator="out"/>
<feColorMatrix type="matrix" values="0 0 0 0 1 0 0 0 0 1 0 0 0 0 1 0 0 0 1 0"/>
<feBlend mode="normal" in2="BackgroundImageFix" result="effect1_dropShadow_68_33"/>
<feBlend mode="normal" in="SourceGraphic" in2="effect1_dropShadow_68_33" result="shape"/>
</filter>
<filter id="filter1_d_68_33" x="16" y="37" width="90" height="38" filterUnits="userSpaceOnUse" color-interpolation-filters="sRGB">
<feFlood flood-opacity="0" result="BackgroundImageFix"/>
<feColorMatrix in="SourceAlpha" type="matrix" values="0 0 0 0 0 0 0 0 0 0 0 0 0 0 0 0 0 0 127 0" result="hardAlpha"/>
<feOffset dy="2"/>
<feGaussianBlur stdDeviation="1"/>
<feComposite in2="hardAlpha" operator="out"/>
<feColorMatrix type="matrix" values="0 0 0 0 0 0 0 0 0 0 0 0 0 0 0 0 0 0 0.25 0"/>
<feBlend mode="normal" in2="BackgroundImageFix" result="effect1_dropShadow_68_33"/>
<feBlend mode="normal" in="SourceGraphic" in2="effect1_dropShadow_68_33" result="shape"/>
</filter>
<filter id="filter2_d_68_33" x="21" y="77" width="80" height="18" filterUnits="userSpaceOnUse" color-interpolation-filters="sRGB">
<feFlood flood-opacity="0" result="BackgroundImageFix"/>
<feColorMatrix in="SourceAlpha" type="matrix" values="0 0 0 0 0 0 0 0 0 0 0 0 0 0 0 0 0 0 127 0" result="hardAlpha"/>
<feOffset dy="2"/>
<feGaussianBlur stdDeviation="1"/>
<feComposite in2="hardAlpha" operator="out"/>
<feColorMatrix type="matrix" values="0 0 0 0 0 0 0 0 0 0 0 0 0 0 0 0 0 0 0.25 0"/>
<feBlend mode="normal" in2="BackgroundImageFix" result="effect1_dropShadow_68_33"/>
<feBlend mode="normal" in="SourceGraphic" in2="effect1_dropShadow_68_33" result="shape"/>
</filter>
<linearGradient id="paint0_linear_68_33" x1="110" y1="13.5" x2="14" y2="108.5" gradientUnits="userSpaceOnUse">
<stop stop-color="#C5C5C5"/>
<stop offset="1" stop-color="#979797"/>
</linearGradient>
</defs>
</svg>
